<svg xmlns="http://www.w3.org/2000/svg" width="200" height="132"><rect x="0" y="0" width="100%" height="100%" fill="rgb(78, 182, 120)"  /><g stroke="#000" stroke-opacity="0.02" fill="#222" fill-opacity="0.028666666666666667" stroke-width="1" transform="translate(0.0,-16.666666666666668)" ><polyline points="0,0,16.666666666666668,11.333333333333332,16.666666666666668,33.333333333333336,0,22.000000000000004,0,0"  /><polyline points="16.666666666666668,11.333333333333332,33.333333333333336,0,33.333333333333336,22.000000000000004,16.666666666666668,33.333333333333336,16.666666666666668,11.333333333333332"  /></g><g stroke="#000" stroke-opacity="0.02" fill="#222" fill-opacity="0.028666666666666667" stroke-width="1" transform="translate(0.0,115.33333333333333)" ><polyline points="0,0,16.666666666666668,11.333333333333332,16.666666666666668,33.333333333333336,0,22.000000000000004,0,0"  /><polyline points="16.666666666666668,11.333333333333332,33.333333333333336,0,33.333333333333336,22.000000000000004,16.666666666666668,33.333333333333336,16.666666666666668,11.333333333333332"  /></g><g stroke="#000" stroke-opacity="0.02" fill="#222" fill-opacity="0.046" stroke-width="1" transform="translate(33.333333333333336,-16.666666666666668)" ><polyline points="0,0,16.666666666666668,11.333333333333332,16.666666666666668,33.333333333333336,0,22.000000000000004,0,0"  /><polyline points="16.666666666666668,11.333333333333332,33.333333333333336,0,33.333333333333336,22.000000000000004,16.666666666666668,33.333333333333336,16.666666666666668,11.333333333333332"  /></g><g stroke="#000" stroke-opacity="0.02" fill="#222" fill-opacity="0.046" stroke-width="1" transform="translate(33.333333333333336,115.33333333333333)" ><polyline points="0,0,16.666666666666668,11.333333333333332,16.666666666666668,33.333333333333336,0,22.000000000000004,0,0"  /><polyline points="16.666666666666668,11.333333333333332,33.333333333333336,0,33.333333333333336,22.000000000000004,16.666666666666668,33.333333333333336,16.666666666666668,11.333333333333332"  /></g><g stroke="#000" stroke-opacity="0.02" fill="#ddd" fill-opacity="0.05466666666666667" stroke-width="1" transform="translate(66.66666666666667,-16.666666666666668)" ><polyline points="0,0,16.666666666666668,11.333333333333332,16.666666666666668,33.333333333333336,0,22.000000000000004,0,0"  /><polyline points="16.666666666666668,11.333333333333332,33.333333333333336,0,33.333333333333336,22.000000000000004,16.666666666666668,33.333333333333336,16.666666666666668,11.333333333333332"  /></g><g stroke="#000" stroke-opacity="0.02" fill="#ddd" fill-opacity="0.05466666666666667" stroke-width="1" transform="translate(66.66666666666667,115.33333333333333)" ><polyline points="0,0,16.666666666666668,11.333333333333332,16.666666666666668,33.333333333333336,0,22.000000000000004,0,0"  /><polyline points="16.666666666666668,11.333333333333332,33.333333333333336,0,33.333333333333336,22.000000000000004,16.666666666666668,33.333333333333336,16.666666666666668,11.333333333333332"  /></g><g stroke="#000" stroke-opacity="0.02" fill="#ddd" fill-opacity="0.02" stroke-width="1" transform="translate(100.0,-16.666666666666668)" ><polyline points="0,0,16.666666666666668,11.333333333333332,16.666666666666668,33.333333333333336,0,22.000000000000004,0,0"  /><polyline points="16.666666666666668,11.333333333333332,33.333333333333336,0,33.333333333333336,22.000000000000004,16.666666666666668,33.333333333333336,16.666666666666668,11.333333333333332"  /></g><g stroke="#000" stroke-opacity="0.02" fill="#ddd" fill-opacity="0.02" stroke-width="1" transform="translate(100.0,115.33333333333333)" ><polyline points="0,0,16.666666666666668,11.333333333333332,16.666666666666668,33.333333333333336,0,22.000000000000004,0,0"  /><polyline points="16.666666666666668,11.333333333333332,33.333333333333336,0,33.333333333333336,22.000000000000004,16.666666666666668,33.333333333333336,16.666666666666668,11.333333333333332"  /></g><g stroke="#000" stroke-opacity="0.02" fill="#222" fill-opacity="0.11533333333333334" stroke-width="1" transform="translate(133.33333333333334,-16.666666666666668)" ><polyline points="0,0,16.666666666666668,11.333333333333332,16.666666666666668,33.333333333333336,0,22.000000000000004,0,0"  /><polyline points="16.666666666666668,11.333333333333332,33.333333333333336,0,33.333333333333336,22.000000000000004,16.666666666666668,33.333333333333336,16.666666666666668,11.333333333333332"  /></g><g stroke="#000" stroke-opacity="0.02" fill="#222" fill-opacity="0.11533333333333334" stroke-width="1" transform="translate(133.33333333333334,115.33333333333333)" ><polyline points="0,0,16.666666666666668,11.333333333333332,16.666666666666668,33.333333333333336,0,22.000000000000004,0,0"  /><polyline points="16.666666666666668,11.333333333333332,33.333333333333336,0,33.333333333333336,22.000000000000004,16.666666666666668,33.333333333333336,16.666666666666668,11.333333333333332"  /></g><g stroke="#000" stroke-opacity="0.02" fill="#222" fill-opacity="0.046" stroke-width="1" transform="translate(166.66666666666669,-16.666666666666668)" ><polyline points="0,0,16.666666666666668,11.333333333333332,16.666666666666668,33.333333333333336,0,22.000000000000004,0,0"  /><polyline points="16.666666666666668,11.333333333333332,33.333333333333336,0,33.333333333333336,22.000000000000004,16.666666666666668,33.333333333333336,16.666666666666668,11.333333333333332"  /></g><g stroke="#000" stroke-opacity="0.02" fill="#222" fill-opacity="0.046" stroke-width="1" transform="translate(166.66666666666669,115.33333333333333)" ><polyline points="0,0,16.666666666666668,11.333333333333332,16.666666666666668,33.333333333333336,0,22.000000000000004,0,0"  /><polyline points="16.666666666666668,11.333333333333332,33.333333333333336,0,33.333333333333336,22.000000000000004,16.666666666666668,33.333333333333336,16.666666666666668,11.333333333333332"  /></g><g stroke="#000" stroke-opacity="0.02" fill="#222" fill-opacity="0.11533333333333334" stroke-width="1" transform="translate(0.0,5.333333333333336)" ><polyline points="0,0,16.666666666666668,11.333333333333332,16.666666666666668,33.333333333333336,0,22.000000000000004,0,0"  /><polyline points="16.666666666666668,11.333333333333332,33.333333333333336,0,33.333333333333336,22.000000000000004,16.666666666666668,33.333333333333336,16.666666666666668,11.333333333333332"  /></g><g stroke="#000" stroke-opacity="0.02" fill="#ddd" fill-opacity="0.14133333333333334" stroke-width="1" transform="translate(33.333333333333336,5.333333333333336)" ><polyline points="0,0,16.666666666666668,11.333333333333332,16.666666666666668,33.333333333333336,0,22.000000000000004,0,0"  /><polyline points="16.666666666666668,11.333333333333332,33.333333333333336,0,33.333333333333336,22.000000000000004,16.666666666666668,33.333333333333336,16.666666666666668,11.333333333333332"  /></g><g stroke="#000" stroke-opacity="0.02" fill="#222" fill-opacity="0.028666666666666667" stroke-width="1" transform="translate(66.66666666666667,5.333333333333336)" ><polyline points="0,0,16.666666666666668,11.333333333333332,16.666666666666668,33.333333333333336,0,22.000000000000004,0,0"  /><polyline points="16.666666666666668,11.333333333333332,33.333333333333336,0,33.333333333333336,22.000000000000004,16.666666666666668,33.333333333333336,16.666666666666668,11.333333333333332"  /></g><g stroke="#000" stroke-opacity="0.02" fill="#ddd" fill-opacity="0.08933333333333333" stroke-width="1" transform="translate(100.0,5.333333333333336)" ><polyline points="0,0,16.666666666666668,11.333333333333332,16.666666666666668,33.333333333333336,0,22.000000000000004,0,0"  /><polyline points="16.666666666666668,11.333333333333332,33.333333333333336,0,33.333333333333336,22.000000000000004,16.666666666666668,33.333333333333336,16.666666666666668,11.333333333333332"  /></g><g stroke="#000" stroke-opacity="0.02" fill="#222" fill-opacity="0.098" stroke-width="1" transform="translate(133.33333333333334,5.333333333333336)" ><polyline points="0,0,16.666666666666668,11.333333333333332,16.666666666666668,33.333333333333336,0,22.000000000000004,0,0"  /><polyline points="16.666666666666668,11.333333333333332,33.333333333333336,0,33.333333333333336,22.000000000000004,16.666666666666668,33.333333333333336,16.666666666666668,11.333333333333332"  /></g><g stroke="#000" stroke-opacity="0.02" fill="#ddd" fill-opacity="0.12400000000000001" stroke-width="1" transform="translate(166.66666666666669,5.333333333333336)" ><polyline points="0,0,16.666666666666668,11.333333333333332,16.666666666666668,33.333333333333336,0,22.000000000000004,0,0"  /><polyline points="16.666666666666668,11.333333333333332,33.333333333333336,0,33.333333333333336,22.000000000000004,16.666666666666668,33.333333333333336,16.666666666666668,11.333333333333332"  /></g><g stroke="#000" stroke-opacity="0.02" fill="#222" fill-opacity="0.08066666666666666" stroke-width="1" transform="translate(0.0,27.33333333333334)" ><polyline points="0,0,16.666666666666668,11.333333333333332,16.666666666666668,33.333333333333336,0,22.000000000000004,0,0"  /><polyline points="16.666666666666668,11.333333333333332,33.333333333333336,0,33.333333333333336,22.000000000000004,16.666666666666668,33.333333333333336,16.666666666666668,11.333333333333332"  /></g><g stroke="#000" stroke-opacity="0.02" fill="#ddd" fill-opacity="0.12400000000000001" stroke-width="1" transform="translate(33.333333333333336,27.33333333333334)" ><polyline points="0,0,16.666666666666668,11.333333333333332,16.666666666666668,33.333333333333336,0,22.000000000000004,0,0"  /><polyline points="16.666666666666668,11.333333333333332,33.333333333333336,0,33.333333333333336,22.000000000000004,16.666666666666668,33.333333333333336,16.666666666666668,11.333333333333332"  /></g><g stroke="#000" stroke-opacity="0.02" fill="#222" fill-opacity="0.098" stroke-width="1" transform="translate(66.66666666666667,27.33333333333334)" ><polyline points="0,0,16.666666666666668,11.333333333333332,16.666666666666668,33.333333333333336,0,22.000000000000004,0,0"  /><polyline points="16.666666666666668,11.333333333333332,33.333333333333336,0,33.333333333333336,22.000000000000004,16.666666666666668,33.333333333333336,16.666666666666668,11.333333333333332"  /></g><g stroke="#000" stroke-opacity="0.02" fill="#222" fill-opacity="0.098" stroke-width="1" transform="translate(100.0,27.33333333333334)" ><polyline points="0,0,16.666666666666668,11.333333333333332,16.666666666666668,33.333333333333336,0,22.000000000000004,0,0"  /><polyline points="16.666666666666668,11.333333333333332,33.333333333333336,0,33.333333333333336,22.000000000000004,16.666666666666668,33.333333333333336,16.666666666666668,11.333333333333332"  /></g><g stroke="#000" stroke-opacity="0.02" fill="#ddd" fill-opacity="0.12400000000000001" stroke-width="1" transform="translate(133.33333333333334,27.33333333333334)" ><polyline points="0,0,16.666666666666668,11.333333333333332,16.666666666666668,33.333333333333336,0,22.000000000000004,0,0"  /><polyline points="16.666666666666668,11.333333333333332,33.333333333333336,0,33.333333333333336,22.000000000000004,16.666666666666668,33.333333333333336,16.666666666666668,11.333333333333332"  /></g><g stroke="#000" stroke-opacity="0.02" fill="#222" fill-opacity="0.11533333333333334" stroke-width="1" transform="translate(166.66666666666669,27.33333333333334)" ><polyline points="0,0,16.666666666666668,11.333333333333332,16.666666666666668,33.333333333333336,0,22.000000000000004,0,0"  /><polyline points="16.666666666666668,11.333333333333332,33.333333333333336,0,33.333333333333336,22.000000000000004,16.666666666666668,33.333333333333336,16.666666666666668,11.333333333333332"  /></g><g stroke="#000" stroke-opacity="0.02" fill="#222" fill-opacity="0.046" stroke-width="1" transform="translate(0.0,49.33333333333333)" ><polyline points="0,0,16.666666666666668,11.333333333333332,16.666666666666668,33.333333333333336,0,22.000000000000004,0,0"  /><polyline points="16.666666666666668,11.333333333333332,33.333333333333336,0,33.333333333333336,22.000000000000004,16.666666666666668,33.333333333333336,16.666666666666668,11.333333333333332"  /></g><g stroke="#000" stroke-opacity="0.02" fill="#222" fill-opacity="0.06333333333333334" stroke-width="1" transform="translate(33.333333333333336,49.33333333333333)" ><polyline points="0,0,16.666666666666668,11.333333333333332,16.666666666666668,33.333333333333336,0,22.000000000000004,0,0"  /><polyline points="16.666666666666668,11.333333333333332,33.333333333333336,0,33.333333333333336,22.000000000000004,16.666666666666668,33.333333333333336,16.666666666666668,11.333333333333332"  /></g><g stroke="#000" stroke-opacity="0.02" fill="#222" fill-opacity="0.15" stroke-width="1" transform="translate(66.66666666666667,49.33333333333333)" ><polyline points="0,0,16.666666666666668,11.333333333333332,16.666666666666668,33.333333333333336,0,22.000000000000004,0,0"  /><polyline points="16.666666666666668,11.333333333333332,33.333333333333336,0,33.333333333333336,22.000000000000004,16.666666666666668,33.333333333333336,16.666666666666668,11.333333333333332"  /></g><g stroke="#000" stroke-opacity="0.02" fill="#222" fill-opacity="0.08066666666666666" stroke-width="1" transform="translate(100.0,49.33333333333333)" ><polyline points="0,0,16.666666666666668,11.333333333333332,16.666666666666668,33.333333333333336,0,22.000000000000004,0,0"  /><polyline points="16.666666666666668,11.333333333333332,33.333333333333336,0,33.333333333333336,22.000000000000004,16.666666666666668,33.333333333333336,16.666666666666668,11.333333333333332"  /></g><g stroke="#000" stroke-opacity="0.02" fill="#222" fill-opacity="0.028666666666666667" stroke-width="1" transform="translate(133.33333333333334,49.33333333333333)" ><polyline points="0,0,16.666666666666668,11.333333333333332,16.666666666666668,33.333333333333336,0,22.000000000000004,0,0"  /><polyline points="16.666666666666668,11.333333333333332,33.333333333333336,0,33.333333333333336,22.000000000000004,16.666666666666668,33.333333333333336,16.666666666666668,11.333333333333332"  /></g><g stroke="#000" stroke-opacity="0.02" fill="#ddd" fill-opacity="0.07200000000000001" stroke-width="1" transform="translate(166.66666666666669,49.33333333333333)" ><polyline points="0,0,16.666666666666668,11.333333333333332,16.666666666666668,33.333333333333336,0,22.000000000000004,0,0"  /><polyline points="16.666666666666668,11.333333333333332,33.333333333333336,0,33.333333333333336,22.000000000000004,16.666666666666668,33.333333333333336,16.666666666666668,11.333333333333332"  /></g><g stroke="#000" stroke-opacity="0.02" fill="#ddd" fill-opacity="0.08933333333333333" stroke-width="1" transform="translate(0.0,71.33333333333334)" ><polyline points="0,0,16.666666666666668,11.333333333333332,16.666666666666668,33.333333333333336,0,22.000000000000004,0,0"  /><polyline points="16.666666666666668,11.333333333333332,33.333333333333336,0,33.333333333333336,22.000000000000004,16.666666666666668,33.333333333333336,16.666666666666668,11.333333333333332"  /></g><g stroke="#000" stroke-opacity="0.02" fill="#ddd" fill-opacity="0.12400000000000001" stroke-width="1" transform="translate(33.333333333333336,71.33333333333334)" ><polyline points="0,0,16.666666666666668,11.333333333333332,16.666666666666668,33.333333333333336,0,22.000000000000004,0,0"  /><polyline points="16.666666666666668,11.333333333333332,33.333333333333336,0,33.333333333333336,22.000000000000004,16.666666666666668,33.333333333333336,16.666666666666668,11.333333333333332"  /></g><g stroke="#000" stroke-opacity="0.02" fill="#ddd" fill-opacity="0.03733333333333333" stroke-width="1" transform="translate(66.66666666666667,71.33333333333334)" ><polyline points="0,0,16.666666666666668,11.333333333333332,16.666666666666668,33.333333333333336,0,22.000000000000004,0,0"  /><polyline points="16.666666666666668,11.333333333333332,33.333333333333336,0,33.333333333333336,22.000000000000004,16.666666666666668,33.333333333333336,16.666666666666668,11.333333333333332"  /></g><g stroke="#000" stroke-opacity="0.02" fill="#222" fill-opacity="0.13266666666666665" stroke-width="1" transform="translate(100.0,71.33333333333334)" ><polyline points="0,0,16.666666666666668,11.333333333333332,16.666666666666668,33.333333333333336,0,22.000000000000004,0,0"  /><polyline points="16.666666666666668,11.333333333333332,33.333333333333336,0,33.333333333333336,22.000000000000004,16.666666666666668,33.333333333333336,16.666666666666668,11.333333333333332"  /></g><g stroke="#000" stroke-opacity="0.02" fill="#222" fill-opacity="0.06333333333333334" stroke-width="1" transform="translate(133.33333333333334,71.33333333333334)" ><polyline points="0,0,16.666666666666668,11.333333333333332,16.666666666666668,33.333333333333336,0,22.000000000000004,0,0"  /><polyline points="16.666666666666668,11.333333333333332,33.333333333333336,0,33.333333333333336,22.000000000000004,16.666666666666668,33.333333333333336,16.666666666666668,11.333333333333332"  /></g><g stroke="#000" stroke-opacity="0.02" fill="#222" fill-opacity="0.15" stroke-width="1" transform="translate(166.66666666666669,71.33333333333334)" ><polyline points="0,0,16.666666666666668,11.333333333333332,16.666666666666668,33.333333333333336,0,22.000000000000004,0,0"  /><polyline points="16.666666666666668,11.333333333333332,33.333333333333336,0,33.333333333333336,22.000000000000004,16.666666666666668,33.333333333333336,16.666666666666668,11.333333333333332"  /></g><g stroke="#000" stroke-opacity="0.02" fill="#222" fill-opacity="0.098" stroke-width="1" transform="translate(0.0,93.33333333333334)" ><polyline points="0,0,16.666666666666668,11.333333333333332,16.666666666666668,33.333333333333336,0,22.000000000000004,0,0"  /><polyline points="16.666666666666668,11.333333333333332,33.333333333333336,0,33.333333333333336,22.000000000000004,16.666666666666668,33.333333333333336,16.666666666666668,11.333333333333332"  /></g><g stroke="#000" stroke-opacity="0.02" fill="#ddd" fill-opacity="0.07200000000000001" stroke-width="1" transform="translate(33.333333333333336,93.33333333333334)" ><polyline points="0,0,16.666666666666668,11.333333333333332,16.666666666666668,33.333333333333336,0,22.000000000000004,0,0"  /><polyline points="16.666666666666668,11.333333333333332,33.333333333333336,0,33.333333333333336,22.000000000000004,16.666666666666668,33.333333333333336,16.666666666666668,11.333333333333332"  /></g><g stroke="#000" stroke-opacity="0.02" fill="#222" fill-opacity="0.08066666666666666" stroke-width="1" transform="translate(66.66666666666667,93.33333333333334)" ><polyline points="0,0,16.666666666666668,11.333333333333332,16.666666666666668,33.333333333333336,0,22.000000000000004,0,0"  /><polyline points="16.666666666666668,11.333333333333332,33.333333333333336,0,33.333333333333336,22.000000000000004,16.666666666666668,33.333333333333336,16.666666666666668,11.333333333333332"  /></g><g stroke="#000" stroke-opacity="0.02" fill="#222" fill-opacity="0.028666666666666667" stroke-width="1" transform="translate(100.0,93.33333333333334)" ><polyline points="0,0,16.666666666666668,11.333333333333332,16.666666666666668,33.333333333333336,0,22.000000000000004,0,0"  /><polyline points="16.666666666666668,11.333333333333332,33.333333333333336,0,33.333333333333336,22.000000000000004,16.666666666666668,33.333333333333336,16.666666666666668,11.333333333333332"  /></g><g stroke="#000" stroke-opacity="0.02" fill="#222" fill-opacity="0.06333333333333334" stroke-width="1" transform="translate(133.33333333333334,93.33333333333334)" ><polyline points="0,0,16.666666666666668,11.333333333333332,16.666666666666668,33.333333333333336,0,22.000000000000004,0,0"  /><polyline points="16.666666666666668,11.333333333333332,33.333333333333336,0,33.333333333333336,22.000000000000004,16.666666666666668,33.333333333333336,16.666666666666668,11.333333333333332"  /></g><g stroke="#000" stroke-opacity="0.02" fill="#ddd" fill-opacity="0.07200000000000001" stroke-width="1" transform="translate(166.66666666666669,93.33333333333334)" ><polyline points="0,0,16.666666666666668,11.333333333333332,16.666666666666668,33.333333333333336,0,22.000000000000004,0,0"  /><polyline points="16.666666666666668,11.333333333333332,33.333333333333336,0,33.333333333333336,22.000000000000004,16.666666666666668,33.333333333333336,16.666666666666668,11.333333333333332"  /></g></svg>
