<svg xmlns="http://www.w3.org/2000/svg" width="260" height="288"><rect x="0" y="0" width="100%" height="100%" fill="rgb(68, 189, 192)"  /><path d="M0 44 C 45.5 0, 84.5 0, 130 44 S 214.5 88, 260 44 S 344.5 0, 390.0, 44" fill="none" stroke="#ddd" style="opacity:0.08933333333333333;stroke-width:8px;" transform="translate(-65, -66.0)"  /><path d="M0 44 C 45.5 0, 84.5 0, 130 44 S 214.5 88, 260 44 S 344.5 0, 390.0, 44" fill="none" stroke="#ddd" style="opacity:0.08933333333333333;stroke-width:8px;" transform="translate(-65, 222.0)"  /><path d="M0 44 C 45.5 0, 84.5 0, 130 44 S 214.5 88, 260 44 S 344.5 0, 390.0, 44" fill="none" stroke="#222" style="opacity:0.046;stroke-width:8px;" transform="translate(-65, -58.0)"  /><path d="M0 44 C 45.5 0, 84.5 0, 130 44 S 214.5 88, 260 44 S 344.5 0, 390.0, 44" fill="none" stroke="#222" style="opacity:0.046;stroke-width:8px;" transform="translate(-65, 230.0)"  /><path d="M0 44 C 45.5 0, 84.5 0, 130 44 S 214.5 88, 260 44 S 344.5 0, 390.0, 44" fill="none" stroke="#222" style="opacity:0.046;stroke-width:8px;" transform="translate(-65, -50.0)"  /><path d="M0 44 C 45.5 0, 84.5 0, 130 44 S 214.5 88, 260 44 S 344.5 0, 390.0, 44" fill="none" stroke="#222" style="opacity:0.046;stroke-width:8px;" transform="translate(-65, 238.0)"  /><path d="M0 44 C 45.5 0, 84.5 0, 130 44 S 214.5 88, 260 44 S 344.5 0, 390.0, 44" fill="none" stroke="#ddd" style="opacity:0.05466666666666667;stroke-width:8px;" transform="translate(-65, -42.0)"  /><path d="M0 44 C 45.5 0, 84.5 0, 130 44 S 214.5 88, 260 44 S 344.5 0, 390.0, 44" fill="none" stroke="#ddd" style="opacity:0.05466666666666667;stroke-width:8px;" transform="translate(-65, 246.0)"  /><path d="M0 44 C 45.5 0, 84.5 0, 130 44 S 214.5 88, 260 44 S 344.5 0, 390.0, 44" fill="none" stroke="#222" style="opacity:0.028666666666666667;stroke-width:8px;" transform="translate(-65, -34.0)"  /><path d="M0 44 C 45.5 0, 84.5 0, 130 44 S 214.5 88, 260 44 S 344.5 0, 390.0, 44" fill="none" stroke="#222" style="opacity:0.028666666666666667;stroke-width:8px;" transform="translate(-65, 254.0)"  /><path d="M0 44 C 45.5 0, 84.5 0, 130 44 S 214.5 88, 260 44 S 344.5 0, 390.0, 44" fill="none" stroke="#ddd" style="opacity:0.05466666666666667;stroke-width:8px;" transform="translate(-65, -26.0)"  /><path d="M0 44 C 45.5 0, 84.5 0, 130 44 S 214.5 88, 260 44 S 344.5 0, 390.0, 44" fill="none" stroke="#ddd" style="opacity:0.05466666666666667;stroke-width:8px;" transform="translate(-65, 262.0)"  /><path d="M0 44 C 45.5 0, 84.5 0, 130 44 S 214.5 88, 260 44 S 344.5 0, 390.0, 44" fill="none" stroke="#222" style="opacity:0.098;stroke-width:8px;" transform="translate(-65, -18.0)"  /><path d="M0 44 C 45.5 0, 84.5 0, 130 44 S 214.5 88, 260 44 S 344.5 0, 390.0, 44" fill="none" stroke="#222" style="opacity:0.098;stroke-width:8px;" transform="translate(-65, 270.0)"  /><path d="M0 44 C 45.5 0, 84.5 0, 130 44 S 214.5 88, 260 44 S 344.5 0, 390.0, 44" fill="none" stroke="#222" style="opacity:0.15;stroke-width:8px;" transform="translate(-65, -10.0)"  /><path d="M0 44 C 45.5 0, 84.5 0, 130 44 S 214.5 88, 260 44 S 344.5 0, 390.0, 44" fill="none" stroke="#222" style="opacity:0.15;stroke-width:8px;" transform="translate(-65, 278.0)"  /><path d="M0 44 C 45.5 0, 84.5 0, 130 44 S 214.5 88, 260 44 S 344.5 0, 390.0, 44" fill="none" stroke="#ddd" style="opacity:0.02;stroke-width:8px;" transform="translate(-65, -2.0)"  /><path d="M0 44 C 45.5 0, 84.5 0, 130 44 S 214.5 88, 260 44 S 344.5 0, 390.0, 44" fill="none" stroke="#ddd" style="opacity:0.02;stroke-width:8px;" transform="translate(-65, 286.0)"  /><path d="M0 44 C 45.5 0, 84.5 0, 130 44 S 214.5 88, 260 44 S 344.5 0, 390.0, 44" fill="none" stroke="#222" style="opacity:0.06333333333333334;stroke-width:8px;" transform="translate(-65, 6.0)"  /><path d="M0 44 C 45.5 0, 84.5 0, 130 44 S 214.5 88, 260 44 S 344.5 0, 390.0, 44" fill="none" stroke="#222" style="opacity:0.06333333333333334;stroke-width:8px;" transform="translate(-65, 294.0)"  /><path d="M0 44 C 45.5 0, 84.5 0, 130 44 S 214.5 88, 260 44 S 344.5 0, 390.0, 44" fill="none" stroke="#222" style="opacity:0.046;stroke-width:8px;" transform="translate(-65, 14.0)"  /><path d="M0 44 C 45.5 0, 84.5 0, 130 44 S 214.5 88, 260 44 S 344.5 0, 390.0, 44" fill="none" stroke="#222" style="opacity:0.046;stroke-width:8px;" transform="translate(-65, 302.0)"  /><path d="M0 44 C 45.5 0, 84.5 0, 130 44 S 214.5 88, 260 44 S 344.5 0, 390.0, 44" fill="none" stroke="#222" style="opacity:0.11533333333333334;stroke-width:8px;" transform="translate(-65, 22.0)"  /><path d="M0 44 C 45.5 0, 84.5 0, 130 44 S 214.5 88, 260 44 S 344.5 0, 390.0, 44" fill="none" stroke="#222" style="opacity:0.11533333333333334;stroke-width:8px;" transform="translate(-65, 310.0)"  /><path d="M0 44 C 45.5 0, 84.5 0, 130 44 S 214.5 88, 260 44 S 344.5 0, 390.0, 44" fill="none" stroke="#ddd" style="opacity:0.12400000000000001;stroke-width:8px;" transform="translate(-65, 30.0)"  /><path d="M0 44 C 45.5 0, 84.5 0, 130 44 S 214.5 88, 260 44 S 344.5 0, 390.0, 44" fill="none" stroke="#ddd" style="opacity:0.12400000000000001;stroke-width:8px;" transform="translate(-65, 318.0)"  /><path d="M0 44 C 45.5 0, 84.5 0, 130 44 S 214.5 88, 260 44 S 344.5 0, 390.0, 44" fill="none" stroke="#ddd" style="opacity:0.14133333333333334;stroke-width:8px;" transform="translate(-65, 38.0)"  /><path d="M0 44 C 45.5 0, 84.5 0, 130 44 S 214.5 88, 260 44 S 344.5 0, 390.0, 44" fill="none" stroke="#ddd" style="opacity:0.14133333333333334;stroke-width:8px;" transform="translate(-65, 326.0)"  /><path d="M0 44 C 45.5 0, 84.5 0, 130 44 S 214.5 88, 260 44 S 344.5 0, 390.0, 44" fill="none" stroke="#222" style="opacity:0.08066666666666666;stroke-width:8px;" transform="translate(-65, 46.0)"  /><path d="M0 44 C 45.5 0, 84.5 0, 130 44 S 214.5 88, 260 44 S 344.5 0, 390.0, 44" fill="none" stroke="#222" style="opacity:0.08066666666666666;stroke-width:8px;" transform="translate(-65, 334.0)"  /><path d="M0 44 C 45.5 0, 84.5 0, 130 44 S 214.5 88, 260 44 S 344.5 0, 390.0, 44" fill="none" stroke="#222" style="opacity:0.15;stroke-width:8px;" transform="translate(-65, 54.0)"  /><path d="M0 44 C 45.5 0, 84.5 0, 130 44 S 214.5 88, 260 44 S 344.5 0, 390.0, 44" fill="none" stroke="#222" style="opacity:0.15;stroke-width:8px;" transform="translate(-65, 342.0)"  /><path d="M0 44 C 45.5 0, 84.5 0, 130 44 S 214.5 88, 260 44 S 344.5 0, 390.0, 44" fill="none" stroke="#222" style="opacity:0.046;stroke-width:8px;" transform="translate(-65, 62.0)"  /><path d="M0 44 C 45.5 0, 84.5 0, 130 44 S 214.5 88, 260 44 S 344.5 0, 390.0, 44" fill="none" stroke="#222" style="opacity:0.046;stroke-width:8px;" transform="translate(-65, 350.0)"  /><path d="M0 44 C 45.5 0, 84.5 0, 130 44 S 214.5 88, 260 44 S 344.5 0, 390.0, 44" fill="none" stroke="#222" style="opacity:0.046;stroke-width:8px;" transform="translate(-65, 70.0)"  /><path d="M0 44 C 45.5 0, 84.5 0, 130 44 S 214.5 88, 260 44 S 344.5 0, 390.0, 44" fill="none" stroke="#222" style="opacity:0.046;stroke-width:8px;" transform="translate(-65, 358.0)"  /><path d="M0 44 C 45.5 0, 84.5 0, 130 44 S 214.5 88, 260 44 S 344.5 0, 390.0, 44" fill="none" stroke="#222" style="opacity:0.06333333333333334;stroke-width:8px;" transform="translate(-65, 78.0)"  /><path d="M0 44 C 45.5 0, 84.5 0, 130 44 S 214.5 88, 260 44 S 344.5 0, 390.0, 44" fill="none" stroke="#222" style="opacity:0.06333333333333334;stroke-width:8px;" transform="translate(-65, 366.0)"  /><path d="M0 44 C 45.5 0, 84.5 0, 130 44 S 214.5 88, 260 44 S 344.5 0, 390.0, 44" fill="none" stroke="#222" style="opacity:0.11533333333333334;stroke-width:8px;" transform="translate(-65, 86.0)"  /><path d="M0 44 C 45.5 0, 84.5 0, 130 44 S 214.5 88, 260 44 S 344.5 0, 390.0, 44" fill="none" stroke="#222" style="opacity:0.11533333333333334;stroke-width:8px;" transform="translate(-65, 374.0)"  /><path d="M0 44 C 45.5 0, 84.5 0, 130 44 S 214.5 88, 260 44 S 344.5 0, 390.0, 44" fill="none" stroke="#ddd" style="opacity:0.05466666666666667;stroke-width:8px;" transform="translate(-65, 94.0)"  /><path d="M0 44 C 45.5 0, 84.5 0, 130 44 S 214.5 88, 260 44 S 344.5 0, 390.0, 44" fill="none" stroke="#ddd" style="opacity:0.05466666666666667;stroke-width:8px;" transform="translate(-65, 382.0)"  /><path d="M0 44 C 45.5 0, 84.5 0, 130 44 S 214.5 88, 260 44 S 344.5 0, 390.0, 44" fill="none" stroke="#222" style="opacity:0.028666666666666667;stroke-width:8px;" transform="translate(-65, 102.0)"  /><path d="M0 44 C 45.5 0, 84.5 0, 130 44 S 214.5 88, 260 44 S 344.5 0, 390.0, 44" fill="none" stroke="#222" style="opacity:0.028666666666666667;stroke-width:8px;" transform="translate(-65, 390.0)"  /><path d="M0 44 C 45.5 0, 84.5 0, 130 44 S 214.5 88, 260 44 S 344.5 0, 390.0, 44" fill="none" stroke="#ddd" style="opacity:0.07200000000000001;stroke-width:8px;" transform="translate(-65, 110.0)"  /><path d="M0 44 C 45.5 0, 84.5 0, 130 44 S 214.5 88, 260 44 S 344.5 0, 390.0, 44" fill="none" stroke="#ddd" style="opacity:0.07200000000000001;stroke-width:8px;" transform="translate(-65, 398.0)"  /><path d="M0 44 C 45.5 0, 84.5 0, 130 44 S 214.5 88, 260 44 S 344.5 0, 390.0, 44" fill="none" stroke="#ddd" style="opacity:0.03733333333333333;stroke-width:8px;" transform="translate(-65, 118.0)"  /><path d="M0 44 C 45.5 0, 84.5 0, 130 44 S 214.5 88, 260 44 S 344.5 0, 390.0, 44" fill="none" stroke="#ddd" style="opacity:0.03733333333333333;stroke-width:8px;" transform="translate(-65, 406.0)"  /><path d="M0 44 C 45.5 0, 84.5 0, 130 44 S 214.5 88, 260 44 S 344.5 0, 390.0, 44" fill="none" stroke="#ddd" style="opacity:0.02;stroke-width:8px;" transform="translate(-65, 126.0)"  /><path d="M0 44 C 45.5 0, 84.5 0, 130 44 S 214.5 88, 260 44 S 344.5 0, 390.0, 44" fill="none" stroke="#ddd" style="opacity:0.02;stroke-width:8px;" transform="translate(-65, 414.0)"  /><path d="M0 44 C 45.5 0, 84.5 0, 130 44 S 214.5 88, 260 44 S 344.5 0, 390.0, 44" fill="none" stroke="#ddd" style="opacity:0.07200000000000001;stroke-width:8px;" transform="translate(-65, 134.0)"  /><path d="M0 44 C 45.5 0, 84.5 0, 130 44 S 214.5 88, 260 44 S 344.5 0, 390.0, 44" fill="none" stroke="#ddd" style="opacity:0.07200000000000001;stroke-width:8px;" transform="translate(-65, 422.0)"  /><path d="M0 44 C 45.5 0, 84.5 0, 130 44 S 214.5 88, 260 44 S 344.5 0, 390.0, 44" fill="none" stroke="#222" style="opacity:0.13266666666666665;stroke-width:8px;" transform="translate(-65, 142.0)"  /><path d="M0 44 C 45.5 0, 84.5 0, 130 44 S 214.5 88, 260 44 S 344.5 0, 390.0, 44" fill="none" stroke="#222" style="opacity:0.13266666666666665;stroke-width:8px;" transform="translate(-65, 430.0)"  /><path d="M0 44 C 45.5 0, 84.5 0, 130 44 S 214.5 88, 260 44 S 344.5 0, 390.0, 44" fill="none" stroke="#222" style="opacity:0.11533333333333334;stroke-width:8px;" transform="translate(-65, 150.0)"  /><path d="M0 44 C 45.5 0, 84.5 0, 130 44 S 214.5 88, 260 44 S 344.5 0, 390.0, 44" fill="none" stroke="#222" style="opacity:0.11533333333333334;stroke-width:8px;" transform="translate(-65, 438.0)"  /><path d="M0 44 C 45.5 0, 84.5 0, 130 44 S 214.5 88, 260 44 S 344.5 0, 390.0, 44" fill="none" stroke="#222" style="opacity:0.046;stroke-width:8px;" transform="translate(-65, 158.0)"  /><path d="M0 44 C 45.5 0, 84.5 0, 130 44 S 214.5 88, 260 44 S 344.5 0, 390.0, 44" fill="none" stroke="#222" style="opacity:0.046;stroke-width:8px;" transform="translate(-65, 446.0)"  /><path d="M0 44 C 45.5 0, 84.5 0, 130 44 S 214.5 88, 260 44 S 344.5 0, 390.0, 44" fill="none" stroke="#ddd" style="opacity:0.14133333333333334;stroke-width:8px;" transform="translate(-65, 166.0)"  /><path d="M0 44 C 45.5 0, 84.5 0, 130 44 S 214.5 88, 260 44 S 344.5 0, 390.0, 44" fill="none" stroke="#ddd" style="opacity:0.14133333333333334;stroke-width:8px;" transform="translate(-65, 454.0)"  /><path d="M0 44 C 45.5 0, 84.5 0, 130 44 S 214.5 88, 260 44 S 344.5 0, 390.0, 44" fill="none" stroke="#ddd" style="opacity:0.14133333333333334;stroke-width:8px;" transform="translate(-65, 174.0)"  /><path d="M0 44 C 45.5 0, 84.5 0, 130 44 S 214.5 88, 260 44 S 344.5 0, 390.0, 44" fill="none" stroke="#ddd" style="opacity:0.14133333333333334;stroke-width:8px;" transform="translate(-65, 462.0)"  /><path d="M0 44 C 45.5 0, 84.5 0, 130 44 S 214.5 88, 260 44 S 344.5 0, 390.0, 44" fill="none" stroke="#222" style="opacity:0.11533333333333334;stroke-width:8px;" transform="translate(-65, 182.0)"  /><path d="M0 44 C 45.5 0, 84.5 0, 130 44 S 214.5 88, 260 44 S 344.5 0, 390.0, 44" fill="none" stroke="#222" style="opacity:0.11533333333333334;stroke-width:8px;" transform="translate(-65, 470.0)"  /><path d="M0 44 C 45.5 0, 84.5 0, 130 44 S 214.5 88, 260 44 S 344.5 0, 390.0, 44" fill="none" stroke="#ddd" style="opacity:0.14133333333333334;stroke-width:8px;" transform="translate(-65, 190.0)"  /><path d="M0 44 C 45.5 0, 84.5 0, 130 44 S 214.5 88, 260 44 S 344.5 0, 390.0, 44" fill="none" stroke="#ddd" style="opacity:0.14133333333333334;stroke-width:8px;" transform="translate(-65, 478.0)"  /><path d="M0 44 C 45.5 0, 84.5 0, 130 44 S 214.5 88, 260 44 S 344.5 0, 390.0, 44" fill="none" stroke="#222" style="opacity:0.028666666666666667;stroke-width:8px;" transform="translate(-65, 198.0)"  /><path d="M0 44 C 45.5 0, 84.5 0, 130 44 S 214.5 88, 260 44 S 344.5 0, 390.0, 44" fill="none" stroke="#222" style="opacity:0.028666666666666667;stroke-width:8px;" transform="translate(-65, 486.0)"  /><path d="M0 44 C 45.5 0, 84.5 0, 130 44 S 214.5 88, 260 44 S 344.5 0, 390.0, 44" fill="none" stroke="#ddd" style="opacity:0.14133333333333334;stroke-width:8px;" transform="translate(-65, 206.0)"  /><path d="M0 44 C 45.5 0, 84.5 0, 130 44 S 214.5 88, 260 44 S 344.5 0, 390.0, 44" fill="none" stroke="#ddd" style="opacity:0.14133333333333334;stroke-width:8px;" transform="translate(-65, 494.0)"  /><path d="M0 44 C 45.5 0, 84.5 0, 130 44 S 214.5 88, 260 44 S 344.5 0, 390.0, 44" fill="none" stroke="#ddd" style="opacity:0.02;stroke-width:8px;" transform="translate(-65, 214.0)"  /><path d="M0 44 C 45.5 0, 84.5 0, 130 44 S 214.5 88, 260 44 S 344.5 0, 390.0, 44" fill="none" stroke="#ddd" style="opacity:0.02;stroke-width:8px;" transform="translate(-65, 502.0)"  /></svg>
